<svg width="414" height="410" viewBox="0 0 414 410" fill="none" xmlns="http://www.w3.org/2000/svg">
<path fill-rule="evenodd" clip-rule="evenodd" d="M413.829 0.653625H0.747803V409.973H413.829V0.653625ZM257.795 40.4984C258.713 40.0719 258.922 39.5246 257.795 39.2671C256.855 39.0982 255.891 39.1256 254.962 39.3475C254.745 38.8323 254.424 38.3668 254.021 37.9794C253.854 37.8083 253.69 37.6044 253.522 37.395C253.018 36.7669 252.474 36.0881 251.671 36.0881C251.521 36.1816 251.321 36.2724 251.108 36.3689C250.35 36.7125 249.433 37.1283 250.061 37.9955C250.118 38.0999 250.182 38.2004 250.246 38.3008L250.246 38.3012C250.311 38.4019 250.375 38.5025 250.432 38.6071C250.437 38.6121 250.442 38.6178 250.447 38.624L250.45 38.6286L250.451 38.6313L250.454 38.6358L250.456 38.6398C250.461 38.6523 250.464 38.6658 250.464 38.6795C250.464 38.6933 250.461 38.7068 250.456 38.7193C250.45 38.7318 250.442 38.7429 250.432 38.752C250.169 38.9369 249.919 39.1385 249.683 39.3556C247.917 40.9691 247.199 43.9351 246.49 46.8631C245.296 51.7922 244.129 56.6138 238.03 54.6952C236.984 53.0856 235.873 51.476 234.731 49.8664C233.475 48.1199 231.729 46.0033 230.707 49.2225C230.531 49.6545 230.27 50.0609 230.01 50.4662C229.485 51.2842 228.963 52.098 229.145 53.1097C229.173 53.345 229.148 53.5979 229.122 53.8507V53.8509V53.8511C229.067 54.4023 229.011 54.9534 229.508 55.323C229.632 55.4534 229.849 55.5882 230.079 55.7305C230.685 56.1061 231.376 56.5347 230.658 57.0774L230.624 57.0947L230.586 57.1127L230.565 57.123L230.508 57.1497L230.508 57.1498C230.211 57.2897 229.907 57.4328 229.797 57.7696C229.692 58.0975 229.725 58.4552 229.758 58.8171C229.798 59.2546 229.839 59.6983 229.636 60.1035C229.26 60.5951 229.087 61.2125 229.153 61.8281C229.219 62.4437 229.519 63.0105 229.991 63.4113C230.27 63.6404 230.568 63.8623 230.867 64.0856C231.714 64.7173 232.575 65.3596 233.081 66.2039C233.506 66.9142 233.676 67.7177 233.847 68.5217L233.847 68.522C233.95 69.0116 234.054 69.5014 234.216 69.9704C235.012 72.6665 237.861 73.914 240.348 74.6061L240.605 74.6544C240.629 74.7118 240.648 74.771 240.662 74.8315C240.666 74.848 240.67 74.8645 240.675 74.8812L240.687 74.9246L240.695 74.9522L240.695 74.9524L240.695 74.9525C240.73 75.0766 240.766 75.2053 240.766 75.3385L240.839 75.7892V76.2962L240.887 76.763C240.935 77.1171 240.935 77.5276 240.935 77.9219V78.1875C240.937 78.2637 240.917 78.3389 240.879 78.4048L240.831 78.4692C240.707 78.6107 240.56 78.7304 240.396 78.8233C240.211 78.9279 240.026 79.0165 239.833 79.105L239.414 79.2982L239.141 79.4028L238.94 79.4752L238.867 79.5315C238.846 79.5623 238.835 79.5988 238.835 79.6362C238.835 79.6735 238.846 79.71 238.867 79.7408C238.888 79.7659 238.915 79.7853 238.945 79.7979C233.13 81.5475 228.059 86.2714 225.259 92.996C222.788 98.6135 223.536 104.569 226.12 109.784C226.151 109.842 226.167 109.868 226.196 109.913C226.219 109.95 226.25 110 226.305 110.09C226.425 110.291 226.554 110.484 226.691 110.686L226.86 110.903C226.997 111.08 227.134 111.249 227.279 111.41C227.402 111.555 227.533 111.692 227.673 111.82L228.164 112.344C228.412 112.693 228.695 113.017 229.009 113.309L229.065 113.374L229.347 113.647H229.411C230.615 114.573 231.893 115.397 233.234 116.11C236.604 117.824 240.212 119.023 243.937 119.667C242.931 119.788 241.933 119.893 240.927 119.973C239.036 120.134 237.169 120.134 235.294 120.134L235.012 120.046C225.307 117.349 216.599 109.688 214.298 99.6437C213.498 96.7959 213.357 93.8009 213.217 90.8133C213.007 86.3455 212.798 81.8946 210.386 77.9783C207.232 71.6606 197.647 65.2704 192.287 72.7068C190.227 75.8697 189.535 80.7227 192.054 83.797C192.056 83.8044 192.058 83.8121 192.06 83.8199L192.068 83.8519C192.094 83.9595 192.125 84.088 192.255 84.0948C192.408 84.1029 192.456 84.0143 192.456 83.8936C192.482 83.8525 192.491 83.8031 192.482 83.7554C192.473 83.7077 192.447 83.6651 192.408 83.6361V83.5073C192.049 82.0971 191.973 80.6295 192.186 79.1899C192.399 77.7503 192.896 76.3673 193.647 75.1212C196.182 70.7431 201.333 74.4613 203.425 77.3827C205.373 79.801 206.563 82.7409 206.845 85.8332C207.121 88.4136 207.076 91.0083 207.03 93.6031C206.991 95.775 206.953 97.9469 207.103 100.11C207.57 106.227 209.397 112.69 214.056 116.955L214.102 116.999C209.956 115.242 206.398 113.012 204.544 109.921C203.871 108.476 204.183 106.859 204.491 105.256C204.855 103.367 205.214 101.499 203.956 99.9576C201.172 97.2695 196.939 99.6517 194.372 101.809C194.236 101.943 194.091 102.067 193.937 102.179C193.786 102.13 193.633 102.09 193.478 102.058C193.098 101.961 192.711 101.9 192.323 101.839L192.134 101.809C192.109 101.805 192.084 101.8 192.058 101.796L191.978 101.782C191.778 101.747 191.574 101.712 191.37 101.712H190.581C190.114 101.664 189.656 101.624 189.197 101.624H186.364C185.431 101.656 184.489 101.72 183.564 101.841C183.097 101.905 182.638 101.978 182.155 102.058C181.672 102.139 181.198 102.235 180.723 102.348L180.28 102.444L179.789 102.565C179.556 102.613 179.33 102.67 179.105 102.734L178.413 102.919L177.705 103.128L177.455 103.213L177.453 103.213C177.008 103.363 176.549 103.517 176.095 103.7L175.5 103.949L174.936 104.207C174.475 104.424 174.029 104.671 173.601 104.947C173.25 105.156 172.914 105.387 172.595 105.639C172.257 105.873 171.838 106.235 171.621 106.444C171.404 106.654 171.154 106.903 170.977 107.096C170.8 107.289 170.647 107.466 170.446 107.708C170.245 107.949 170.019 108.255 169.883 108.456C169.792 108.59 169.704 108.734 169.621 108.873L169.62 108.873L169.575 108.949L169.53 109.022L169.496 109.076C169.401 109.229 169.311 109.391 169.221 109.552L169.221 109.552C169.198 109.595 169.174 109.638 169.15 109.68C169.037 109.881 168.933 110.082 168.836 110.291L168.743 110.472C168.542 110.862 168.342 111.25 168.112 111.619C167.624 112.331 167.029 112.963 166.35 113.494L166.323 113.513C166.051 113.699 165.802 113.87 165.545 114.034L164.981 114.38L164.458 114.669L163.871 114.967L163.605 115.104C163.592 115.109 163.58 115.116 163.567 115.123C163.554 115.131 163.541 115.14 163.528 115.148C163.489 115.175 163.451 115.201 163.412 115.201H163.308L162.72 115.498L162.463 115.627C162.376 115.659 162.292 115.7 162.213 115.748C161.543 116.062 160.893 116.417 160.266 116.81C159.926 117.032 159.605 117.282 159.308 117.559C159.101 117.756 158.913 117.971 158.745 118.203C158.567 118.435 158.416 118.686 158.294 118.951C158.149 119.251 158.03 119.564 157.94 119.885C157.861 120.168 157.799 120.455 157.755 120.746C157.678 121.26 157.662 121.781 157.706 122.299C157.739 122.573 157.771 122.83 157.819 123.104C157.857 123.308 157.905 123.509 157.964 123.707C158.065 124.088 158.191 124.462 158.342 124.826C158.423 125.027 158.519 125.253 158.6 125.414C158.68 125.574 158.761 125.736 158.833 125.905C158.905 126.061 158.982 126.22 159.058 126.379L159.059 126.381L159.06 126.382C159.091 126.447 159.122 126.512 159.153 126.576C159.197 126.67 159.241 126.762 159.284 126.854C159.477 127.257 159.662 127.659 159.839 128.061L159.839 128.062L159.84 128.063L159.84 128.064L159.84 128.064L159.841 128.065L159.841 128.066L159.841 128.066L159.841 128.067L159.842 128.068L159.842 128.068L159.842 128.069C160.099 128.646 160.355 129.223 160.579 129.808C160.623 129.911 160.674 130.043 160.721 130.164L160.721 130.164L160.722 130.166C160.77 130.289 160.813 130.399 160.837 130.452C160.885 130.556 160.925 130.661 160.965 130.765L161.119 131.128C161.317 131.577 161.54 132.015 161.787 132.44C162.015 132.819 162.264 133.184 162.535 133.534C162.817 133.904 163.131 134.275 163.436 134.596C163.742 134.918 164.072 135.24 164.402 135.538L164.901 135.957L165.126 136.134L165.384 136.327C165.701 136.55 166.032 136.755 166.374 136.938C166.676 137.104 166.994 137.239 167.323 137.341C168.308 137.679 169.366 137.737 170.381 137.51C170.835 137.393 171.277 137.234 171.701 137.035C171.983 136.914 172.24 136.794 172.506 136.657L173.311 136.222C173.552 136.053 173.826 135.884 174.116 135.723L174.558 135.458C174.654 135.393 174.758 135.337 174.861 135.28L174.861 135.279L174.861 135.279L174.861 135.279L174.862 135.279L174.862 135.279L174.862 135.279L174.862 135.279C174.914 135.25 174.966 135.222 175.017 135.192L175.492 134.943C175.842 134.752 176.231 134.577 176.55 134.433L176.562 134.427C176.884 134.283 177.206 134.162 177.536 134.049L177.858 133.937C177.881 133.927 177.896 133.922 177.909 133.918C177.921 133.914 177.932 133.911 177.948 133.907L177.948 133.907L177.949 133.907L177.949 133.907L177.966 133.903L177.99 133.897C178.017 133.89 178.054 133.88 178.107 133.864L178.181 133.843C178.347 133.794 178.509 133.746 178.671 133.711C178.968 133.633 179.24 133.58 179.553 133.52L179.685 133.494C180.039 133.425 180.43 133.385 180.808 133.346L180.86 133.341H183.58L184.087 133.389C184.191 133.381 184.296 133.381 184.4 133.389C184.616 133.623 184.883 133.829 185.152 134.038C185.458 134.273 185.767 134.512 186.01 134.798C186.084 134.861 186.154 134.928 186.219 134.999C186.953 136.047 187.627 137.146 188.3 138.244L188.3 138.244L188.3 138.244L188.3 138.244L188.3 138.245L188.301 138.245L188.301 138.245L188.301 138.245L188.301 138.246L188.301 138.246L188.301 138.246L188.303 138.249C188.522 138.607 188.742 138.965 188.964 139.321C188.99 139.438 189.025 139.554 189.068 139.667C189.101 139.784 189.141 139.9 189.189 140.013C189.303 140.287 189.429 140.548 189.568 140.835L189.633 140.97L189.661 141.03L189.703 141.117L189.744 141.204C189.927 141.591 190.134 141.947 190.339 142.299L190.428 142.451C190.658 142.848 190.888 143.213 191.156 143.639L191.169 143.659C191.386 144.005 191.614 144.325 191.845 144.648L191.845 144.649L191.94 144.782L192.022 144.898C192.14 145.086 192.268 145.271 192.408 145.453L192.77 145.968L193.092 146.403L193.341 146.741L193.527 146.99L193.557 147.032L193.612 147.106L193.613 147.107C193.681 147.2 193.751 147.295 193.824 147.385L194.854 148.729C195.092 149.029 195.328 149.331 195.564 149.632L195.564 149.632C195.904 150.066 196.243 150.499 196.585 150.926L196.958 151.394C196.926 151.426 196.907 151.483 196.907 151.57L196.834 151.618L196.746 151.699C196.609 151.843 196.48 151.996 196.359 152.149C196.066 152.518 195.797 152.905 195.555 153.308C195.419 153.535 195.295 153.768 195.184 154.008L194.991 154.443C194.927 154.588 194.903 154.644 194.814 154.87C194.726 155.095 194.621 155.377 194.557 155.562C194.492 155.747 194.428 155.932 194.372 156.117C194.243 156.552 194.13 156.938 194.034 157.356C193.803 158.299 193.66 159.261 193.607 160.23C193.542 161.252 193.599 162.279 193.776 163.288C193.926 164.141 194.149 164.979 194.441 165.794C192.015 167.858 190.057 169.705 188.489 171.481L188.538 171.5C185.714 170.624 182.599 170.376 179.733 170.282C173.198 169.952 167.275 173.082 162.527 177.324C161.753 174.442 159.461 172.078 157.388 169.941L157.079 169.622C152.122 164.684 145.977 161.106 139.237 159.232C134.043 157.441 128.527 156.776 123.056 157.281C117.585 157.786 112.284 159.45 107.505 162.161C101.282 165.011 96.5092 170.059 91.7653 175.075C85.4044 181.802 79.0958 188.473 69.4153 189.718C62.6955 190.732 54.1087 190.305 49.8193 184.229C46.3427 179.247 43.7674 173.372 44.3871 167.175C44.6315 162.961 45.949 158.953 47.2543 154.982C47.5396 154.115 47.8243 153.249 48.0971 152.383C50.0768 145.598 50.0446 138.411 49.0869 131.458C48.5477 126.959 45.8437 117.615 39.9206 122.444C39.6605 122.641 39.3968 122.839 39.1314 123.038L39.1289 123.04L39.127 123.041L39.1255 123.042C36.9376 124.681 34.6418 126.4 33.394 128.81C31.9937 131.514 32.6777 134.629 34.408 137.003C35.7435 139.07 36.4713 141.471 36.5084 143.932C36.3743 147.669 35.6182 151.343 34.8614 155.02C33.9379 159.506 33.0135 163.998 33.2169 168.616C33.0801 200.784 56.9495 217.411 86.1947 220.059C85.1598 220.931 84.0594 221.722 82.9032 222.425C76.2478 226.385 68.7152 228.453 61.2711 230.344C59.7191 230.836 58.1044 231.166 56.4892 231.495C53.8498 232.034 51.2088 232.573 48.8374 233.821C45.8437 236.163 53.6097 237.25 55.1066 237.145C70.4293 237.072 86.074 232.123 97.1476 221.314C106.691 233.663 113.582 240.821 128.918 245.048C129.224 245.739 129.61 246.393 130.078 246.982C130.24 251.382 131.47 256.554 136.589 256.911C139.477 257.12 142.341 256.26 144.637 254.497C144.886 261.238 144.271 267.638 143.649 274.12C143.286 277.9 142.92 281.708 142.722 285.626C141.815 303.325 138.713 316.729 135.126 332.23L134.521 334.848C131.68 347.154 130.473 351.564 123.536 365.769C120.618 371.435 116.953 376.684 112.639 381.374C108.793 385.495 107.054 394.815 117.645 396.384C121.553 396.837 125.493 396.937 129.419 396.682C130.055 396.649 130.641 396.624 131.187 396.6C135.934 396.392 137.634 396.317 142.376 393.149C152.39 386.098 155.467 375.146 158.646 363.827L158.647 363.826L158.647 363.826L158.647 363.826L158.647 363.826L158.647 363.825L158.647 363.825L158.647 363.825L158.647 363.824L158.647 363.824L158.647 363.824C159.663 360.209 160.689 356.556 161.955 352.981C163.027 349.745 164.04 346.482 165.054 343.216L165.054 343.216L165.054 343.215L165.054 343.215L165.054 343.214L165.055 343.214L165.055 343.214L165.055 343.213L165.055 343.213L165.055 343.212L165.055 343.212L165.057 343.205C166.874 337.352 168.693 331.491 170.856 325.77C171.406 332.639 172.475 339.496 173.541 346.334L173.541 346.335L173.541 346.335L173.541 346.335L173.541 346.336L173.541 346.336L173.541 346.336L173.541 346.337L173.541 346.337L173.541 346.337L173.541 346.338L173.542 346.343C174.423 352.001 175.303 357.646 175.886 363.274C177.198 376.586 175.427 381.914 167.838 392.682C163.766 398.903 170.011 400.77 175.146 401.197C197.945 403.828 205.928 388.296 208.608 368.32C209.678 360.618 210.539 352.884 211.143 345.134L211.195 344.155C211.426 339.787 211.658 335.408 212.084 331.05C225.371 336.667 239.897 338.897 254.343 338.768C262.335 338.869 270.327 338.466 278.268 337.561C276.836 348.82 275.524 360.087 274.663 371.411C274.461 373.246 274.39 375.108 274.32 376.972C274.183 380.593 274.046 384.22 272.941 387.668C272.618 388.743 272.087 389.848 271.546 390.971C270.347 393.463 269.105 396.045 270.003 398.597C272.378 402.018 277.029 402.798 280.924 402.959C281.584 403 282.244 403 282.904 403C288.231 402.929 293.538 402.336 298.75 401.229C301.394 400.797 303.961 399.984 306.371 398.815C306.701 397.913 307.031 397.004 307.329 396.086L308.19 393.495C308.296 393.175 308.389 392.847 308.483 392.52L308.483 392.518C308.517 392.401 308.55 392.284 308.584 392.167C308.793 391.483 308.994 390.807 309.196 390.123C309.285 389.715 309.374 389.309 309.463 388.904L309.464 388.899L309.464 388.898C309.72 387.73 309.975 386.568 310.226 385.374L310.323 384.917C310.54 383.893 310.758 382.865 310.982 381.849C311.096 381.331 311.208 380.813 311.319 380.296C311.507 379.426 311.695 378.557 311.892 377.688C311.903 377.64 311.915 377.592 311.926 377.543L311.948 377.447L311.962 377.386L312.01 377.175L312.04 377.04C312.052 376.988 312.064 376.936 312.077 376.884L312.131 376.421C312.24 375.494 312.348 374.582 312.479 373.664C312.58 372.896 312.684 372.131 312.789 371.365C312.893 370.597 312.998 369.83 313.099 369.061C313.121 368.924 313.15 368.777 313.18 368.627L313.208 368.488C313.223 368.41 313.238 368.333 313.252 368.256L313.566 366.51C313.577 366.443 313.588 366.378 313.599 366.313C313.634 366.103 313.667 365.902 313.71 365.705C313.72 365.666 313.733 365.625 313.746 365.583C313.754 365.557 313.763 365.53 313.771 365.503C313.779 365.475 313.786 365.448 313.792 365.42L313.794 365.411L313.796 365.398L313.799 365.383L313.802 365.366L313.804 365.347L313.805 365.339C313.806 365.324 313.807 365.309 313.807 365.294C313.82 365.146 313.833 364.997 313.846 364.849C313.866 364.624 313.885 364.399 313.904 364.173L313.905 364.154L313.906 364.15C313.934 363.817 313.962 363.483 313.992 363.146C314.491 357.705 315.03 352.256 315.722 346.832C315.787 346.382 315.845 345.931 315.902 345.486L315.923 345.319C315.919 345.298 315.919 345.276 315.923 345.255C317.887 350.751 319.77 356.28 321.452 361.874L321.522 362.096L321.523 362.099C323.19 367.408 324.859 372.727 326.176 378.139C326.273 378.509 326.361 378.887 326.442 379.266C326.29 380.603 326.062 381.93 325.758 383.241C325.433 384.672 324.982 386.162 324.531 387.654C322.434 394.585 320.317 401.586 330.627 403.056C339.769 403.869 354.222 399.796 354.52 388.771C353.621 380.826 351.587 373.061 349.553 365.295L349.553 365.294L349.552 365.29C348.217 360.195 346.882 355.1 345.869 349.955C341.909 332.249 339.986 314.06 341.225 296.033C341.247 296.008 341.27 295.986 341.297 295.967C341.322 295.948 341.349 295.932 341.378 295.92V295.646C341.402 295.285 341.442 294.971 341.49 294.596L341.514 294.407C341.525 294.32 341.536 294.229 341.547 294.133L341.574 293.908L341.602 293.666L341.605 293.648L341.605 293.646L341.605 293.645L341.605 293.644C341.656 293.203 341.708 292.761 341.773 292.314C341.794 292.161 341.819 291.99 341.844 291.822L341.873 291.628L341.873 291.627C341.89 291.518 341.905 291.414 341.919 291.319C341.931 291.241 341.941 291.169 341.95 291.107C341.956 291.06 341.963 291.012 341.969 290.964L341.986 290.83C342.012 290.633 342.037 290.438 342.07 290.246L342.075 290.221L342.08 290.2C342.084 290.179 342.089 290.157 342.093 290.136L342.104 290.085L342.108 290.065L342.113 290.04L342.116 290.028L342.12 290.008L342.124 289.983L342.126 289.966C342.128 289.957 342.129 289.948 342.13 289.94C342.133 289.913 342.135 289.886 342.135 289.86L342.014 289.578C343.199 283.853 343.957 278.048 344.283 272.21C353.063 278.327 358.254 288.556 360.757 298.769C361.995 305.714 362.266 312.796 361.562 319.815C361.449 319.791 361.32 319.855 361.192 320.016C358.737 325.698 358.544 331.999 358.777 338.1C358.873 338.683 358.884 339.4 358.895 340.156C358.925 342.132 358.958 344.376 360.524 345.214C363.34 345.103 364.812 339.5 365.553 336.679C365.614 336.445 365.671 336.23 365.722 336.04L365.767 335.798C366.858 329.869 368.041 323.439 365.722 317.682C367.638 298.35 363.622 282.367 349.233 268.162C347.309 266.086 345.426 264.017 343.599 261.901C342.89 257.934 341.452 254.133 339.358 250.69C334.3 242.69 327.426 236.02 320.373 229.729C324.788 226.371 326.543 219.788 326.635 214.248C326.699 207.609 323.738 201.323 319.545 196.711C318.95 196.069 318.202 195.682 317.456 195.297C317.072 195.098 316.688 194.9 316.326 194.667C315.255 193.955 314.238 193.164 313.284 192.301C308.7 188.573 311.091 184.282 313.453 180.041C313.799 179.421 314.144 178.801 314.467 178.185C316.443 174.649 317.565 170.711 318.68 166.804C318.905 166.016 319.129 165.229 319.36 164.447C319.512 163.736 319.688 163.021 319.865 162.302C320.483 159.789 321.112 157.232 320.768 154.684C320.645 154.156 320.504 153.632 320.346 153.113C320.497 152.69 320.657 152.271 320.825 151.854C323.771 152.224 326.514 153.59 328.591 155.739C332.355 159.582 333.772 165.022 335.165 170.366L335.166 170.369C335.63 172.152 336.093 173.926 336.638 175.626C338.449 182.096 342.835 190.691 349.12 192.873C353.619 194.064 358.962 193.943 362.946 190.893C368.081 186.442 371.058 179.497 371.613 172.591C372.41 163.956 369.183 153.646 363.348 147.803C360.669 145.268 358.922 147.288 359.445 150.628C360.012 153.807 361.458 156.616 362.9 159.418C363.608 160.795 364.316 162.17 364.918 163.586C367.356 168.946 366.358 176.736 363.55 181.935C359.115 189.927 351.341 188.406 346.392 182.41C343.543 178.371 342.56 173.469 341.574 168.555C340.833 164.862 340.09 161.161 338.554 157.815C335.932 151.246 330.188 147.255 323.97 145.357C324.072 145.163 324.175 144.97 324.278 144.777C326.828 139.981 329.43 135.088 329.299 129.599C328.494 117.518 311.803 116.681 302.484 116.971C298.594 117.152 294.701 117.903 290.808 118.653C284.295 119.91 277.78 121.166 271.267 119.756C275.09 115.201 275.122 109.02 270.462 104.416C270.181 104.098 269.861 103.813 269.541 103.527L269.541 103.527C269.221 103.241 268.901 102.955 268.619 102.638C267.94 100.478 267.134 98.3603 266.205 96.2957C264.059 91.6031 260.855 87.4712 256.846 84.2236C254.529 82.2035 252.092 80.8107 249.631 79.9833C249.636 79.9052 249.64 79.8271 249.643 79.7488C249.908 79.942 252.5 81.1251 251.405 80.0547C251.241 79.9338 251.075 79.8148 250.909 79.6958C250.488 79.3949 250.067 79.0934 249.675 78.7589C249.328 78.2437 249.042 77.6901 248.822 77.1091C248.369 76.0594 247.977 74.9846 247.647 73.8899C249.874 73.0334 251.728 71.4209 252.886 69.3346C253.291 68.0558 253.961 66.8971 254.629 65.742C255.406 64.3966 256.181 63.056 256.532 61.5361C256.808 60.1483 256.467 58.7606 256.135 57.4057L256.135 57.4054C256.089 57.2204 256.044 57.0359 256.001 56.8521C255.724 55.6399 255.378 54.444 255.032 53.2481L255.032 53.2479L255.031 53.2477L255.031 53.2474L255.031 53.2472L255.031 53.247L255.031 53.2467L255.031 53.2465L255.031 53.2463L255.031 53.2461L255.031 53.2458C254.502 51.4174 253.973 49.5888 253.691 47.7014C253.473 46.3902 253.435 45.0553 253.578 43.7337C253.618 43.6854 253.659 43.6774 253.707 43.7337C253.908 43.8876 254.145 43.9881 254.395 44.0261C254.646 44.0641 254.902 44.0383 255.139 43.951C255.229 43.9071 255.306 43.8414 255.364 43.7598C255.422 43.6782 255.458 43.5835 255.469 43.4842C255.545 43.2101 255.544 42.9222 255.543 42.636C255.542 42.3426 255.541 42.0511 255.622 41.7781C256.006 41.5019 256.436 41.2665 256.87 41.0293L256.87 41.0291C257.182 40.8585 257.496 40.6869 257.795 40.4984ZM246.827 79.2826C247.994 77.7006 247.497 76.7195 246.11 74.3969C244.875 74.7265 243.597 74.8702 242.32 74.8234C242.286 75.0067 242.267 75.1924 242.263 75.3787C242.246 75.5377 242.228 75.696 242.21 75.8539L242.21 75.8559L242.21 75.8563L242.21 75.8568L242.209 75.8572L242.209 75.8577L242.209 75.8582L242.209 75.8584C242.161 76.2827 242.113 76.7039 242.078 77.1252C242.078 77.8897 242.078 78.7348 242.802 79.0889L242.805 79.0901C244.131 78.9987 245.477 79.0594 246.827 79.2826ZM320.374 142.459C320.14 143.057 319.896 143.65 319.649 144.242C318.014 143.875 316.366 143.571 314.708 143.329C314.601 143.206 314.493 143.084 314.384 142.963C313.83 141.758 312.831 140.911 311.832 140.063C311.42 139.714 311.009 139.365 310.628 138.991C305.22 134.186 298.516 131.297 291.805 128.802C290.123 127.884 288.465 126.774 288.908 125.816L288.948 125.76C294.485 123.514 300.569 122.476 306.435 121.776C322.981 121.213 326.699 127.45 320.374 142.459ZM270.659 181.8C269.522 182.462 268.26 182.861 266.889 182.861C266.62 182.86 266.352 182.843 266.084 182.812C264.242 182.575 262.51 181.803 261.103 180.591C259.845 179.507 258.759 178.237 257.884 176.825C257.805 176.498 258.001 176.354 258.264 176.292C249.43 175.765 240.685 174.377 232.032 172.559C230.409 173.955 228.053 174.344 225.959 173.952C225.54 173.895 225.41 173.578 225.349 173.225C225.356 173.405 225.363 173.585 225.37 173.765V173.767C225.421 175.052 225.471 176.332 225.419 177.581C225.412 178.67 225.415 179.765 225.418 180.865C225.434 186.721 225.451 192.685 223.858 198.329L223.805 198.64C228.787 198.744 233.765 198.95 238.738 199.271C255.176 200.34 271.757 202.686 287.252 208.383C288.388 205.664 288.996 202.746 289.036 199.786C286.52 198.768 284.121 197.481 281.882 195.947C278.58 193.748 275.758 190.903 273.587 187.583C272.398 185.765 271.417 183.825 270.659 181.8ZM260.203 176.394C260.391 176.407 260.574 176.415 260.755 176.418C260.571 176.41 260.387 176.402 260.203 176.394ZM313.167 220.897L313.163 220.9C312.674 221.351 312.179 221.807 311.707 222.265C307.175 218.573 302.417 215.168 297.189 212.583C299.074 209.495 300.604 206.196 301.744 202.747L302.529 202.85C304.546 203.112 306.566 203.374 308.568 203.737C309.692 203.852 310.778 204.209 311.751 204.784C312.723 205.36 313.559 206.139 314.201 207.069C316.696 210.313 318.137 215.954 314.837 219.318C314.319 219.833 313.748 220.36 313.169 220.895L313.167 220.897ZM216.31 193.54C215.988 195.205 215.73 196.88 215.506 198.559C212.877 198.561 210.247 198.59 207.618 198.643C204.969 198.699 202.319 198.779 199.67 198.867C199.14 198.873 198.611 198.885 198.082 198.904C197.968 198.892 197.853 198.896 197.74 198.917C196.392 198.974 195.051 199.085 193.732 199.287C193.235 199.308 192.741 199.332 192.247 199.359C191.929 199.399 191.607 199.399 191.289 199.359C192.335 196.719 193.317 194.058 194.235 191.376C194.508 190.314 194.891 189.2 195.283 188.059C196.333 185.003 197.448 181.755 196.703 178.822L196.873 178.718C197.809 178.145 198.743 177.573 199.651 176.97C199.993 176.755 200.336 176.541 200.678 176.326C200.697 176.374 200.717 176.422 200.737 176.471L200.93 177.002C201.059 177.372 201.188 177.831 201.276 178.177C201.34 178.426 201.396 178.675 201.452 178.927C201.473 179.025 201.495 179.124 201.518 179.223C201.525 179.26 201.531 179.301 201.537 179.342C201.551 179.436 201.565 179.534 201.598 179.601C201.647 179.698 201.647 179.786 201.647 179.891V180.028C201.729 180.497 201.797 180.972 201.864 181.442L201.864 181.447L201.865 181.451L201.866 181.456L201.866 181.457L201.866 181.461L201.88 181.557C201.92 181.839 201.961 182.12 202.009 182.402C202.039 182.624 202.082 182.845 202.138 183.062C202.191 183.283 202.278 183.495 202.395 183.69C202.456 183.796 202.532 183.894 202.62 183.979C202.691 184.042 202.777 184.083 202.87 184.1H202.966C203.039 184.095 203.108 184.063 203.16 184.012L203.272 183.875C203.296 183.834 203.318 183.791 203.336 183.747C203.345 183.726 203.353 183.704 203.361 183.682C203.417 183.545 203.466 183.405 203.506 183.263C203.586 182.953 203.651 182.639 203.699 182.322C203.802 181.661 203.845 180.993 203.828 180.326C203.828 180.159 203.841 179.961 203.855 179.766L203.855 179.765C203.872 179.509 203.89 179.256 203.876 179.078C203.852 178.764 203.828 178.466 203.779 178.137C203.731 177.807 203.675 177.485 203.61 177.163L203.601 177.115C203.573 176.975 203.549 176.855 203.506 176.696C203.497 176.663 203.488 176.631 203.48 176.599L203.452 176.494L203.428 176.406L203.415 176.358L203.397 176.288L203.387 176.253L203.369 176.189L203.119 175.384L202.941 174.898C205.211 173.46 207.471 172.012 209.724 170.559C210.512 171.293 211.131 172.307 211.695 173.233C211.861 173.505 212.022 173.769 212.181 174.016C215.456 179.714 216.511 186.482 216.422 192.993C216.398 193.091 216.379 193.191 216.362 193.286L216.353 193.335C216.339 193.409 216.326 193.479 216.31 193.54ZM204.137 172.032C204.502 171.793 204.868 171.554 205.234 171.316L205.298 171.274L205.296 171.284L205.294 171.293L205.291 171.311L205.29 171.32L205.288 171.333C204.997 171.51 204.706 171.687 204.415 171.863L204.137 172.032ZM340.139 309.344V308.877C340.123 309.033 340.123 309.189 340.139 309.344ZM323.271 376.24C323.094 375.169 322.925 374.099 322.756 373.02V371.411C322.949 373.149 323.148 374.888 323.351 376.626V376.747L323.311 376.843L323.271 376.24ZM318.837 375.282V375.281C318.837 374.42 318.837 373.543 318.772 372.674V372.401C318.772 372.68 318.799 372.959 318.827 373.24C318.839 373.365 318.851 373.49 318.861 373.616C318.874 373.765 318.888 373.914 318.901 374.063C318.921 374.276 318.941 374.489 318.961 374.702C318.996 375.065 319.03 375.427 319.062 375.789C319.062 375.972 319.034 376.161 319.007 376.346L318.995 376.426C318.99 376.458 318.986 376.49 318.982 376.521C318.956 376.737 318.928 376.953 318.899 377.167C318.875 377.353 318.851 377.538 318.829 377.721C318.837 376.916 318.837 376.095 318.837 375.282ZM356.719 383.207L356.711 383.189C356.701 383.164 356.691 383.138 356.685 383.113V382.944C356.685 383.028 356.712 383.113 356.74 383.197L356.746 383.216C356.751 383.231 356.756 383.247 356.761 383.262L356.767 383.284L356.773 383.306V383.362L356.741 383.298L356.741 383.29L356.74 383.284L356.739 383.276L356.738 383.266C356.737 383.262 356.736 383.258 356.735 383.254C356.733 383.246 356.73 383.239 356.727 383.231L356.725 383.223L356.719 383.207ZM319.223 384.288C319.223 384.159 319.223 384.03 319.287 383.91V384.457L319.223 384.288ZM354.898 385.769L354.939 385.986L354.85 386.107L354.898 385.769ZM315.867 389.648C315.869 389.611 315.87 389.575 315.87 389.539C315.87 389.508 315.869 389.477 315.867 389.447V388.94C315.888 389.135 315.909 389.33 315.929 389.525L315.948 389.712L315.949 389.724C315.975 389.977 316 390.231 316.028 390.485L315.771 390.855C315.827 390.453 315.851 390.05 315.867 389.648ZM310.403 390.235L310.282 390.63C310.185 391.056 310.097 391.475 310.025 391.901L310.169 391.507C310.191 391.406 310.213 391.298 310.236 391.186C310.256 391.091 310.275 390.992 310.295 390.892L310.297 390.886L310.299 390.875C310.333 390.705 310.368 390.532 310.403 390.364V390.235ZM47.3406 212.043C47.2761 212.012 47.2186 211.968 47.1716 211.914C47.1467 211.887 47.1274 211.856 47.115 211.821C47.1025 211.786 47.0972 211.75 47.0992 211.713C47.0992 211.568 47.3165 211.584 47.4211 211.633C47.5257 211.681 47.6786 211.818 47.6545 211.963C47.6495 211.986 47.6388 212.008 47.6234 212.026C47.6079 212.044 47.5882 212.058 47.566 212.067H47.4855C47.436 212.07 47.3865 212.062 47.3406 212.043Z" fill="#F23B1F"/>
</svg>
